<svg width="48" height="48" viewBox="0 0 48 48" fill="none" xmlns="http://www.w3.org/2000/svg">
<rect width="48" height="48" fill="white" fill-opacity="0.03"/>
<path d="M24 34C22.6167 34 21.3167 33.7375 20.1 33.2125C18.8833 32.6875 17.825 31.975 16.925 31.075C16.025 30.175 15.3125 29.1167 14.7875 27.9C14.2625 26.6833 14 25.3833 14 24C14 22.6167 14.2625 21.3167 14.7875 20.1C15.3125 18.8833 16.025 17.825 16.925 16.925C17.825 16.025 18.8833 15.3125 20.1 14.7875C21.3167 14.2625 22.6167 14 24 14C25.3833 14 26.6833 14.2625 27.9 14.7875C29.1167 15.3125 30.175 16.025 31.075 16.925C31.975 17.825 32.6875 18.8833 33.2125 20.1C33.7375 21.3167 34 22.6167 34 24C34 25.3833 33.7375 26.6833 33.2125 27.9C32.6875 29.1167 31.975 30.175 31.075 31.075C30.175 31.975 29.1167 32.6875 27.9 33.2125C26.6833 33.7375 25.3833 34 24 34V34M23 31.95V30C22.45 30 21.9792 29.8042 21.5875 29.4125C21.1958 29.0208 21 28.55 21 28V27L16.2 22.2C16.15 22.5 16.1042 22.8 16.0625 23.1C16.0208 23.4 16 23.7 16 24C16 26.0167 16.6625 27.7833 17.9875 29.3C19.3125 30.8167 20.9833 31.7 23 31.95V31.95M29.9 29.4C30.5833 28.65 31.1042 27.8125 31.4625 26.8875C31.8208 25.9625 32 25 32 24C32 22.3667 31.5458 20.875 30.6375 19.525C29.7292 18.175 28.5167 17.2 27 16.6V17C27 17.55 26.8042 18.0208 26.4125 18.4125C26.0208 18.8042 25.55 19 25 19H23V21C23 21.2833 22.9042 21.5208 22.7125 21.7125C22.5208 21.9042 22.2833 22 22 22H20V24H26C26.2833 24 26.5208 24.0958 26.7125 24.2875C26.9042 24.4792 27 24.7167 27 25V28H28C28.4333 28 28.825 28.1292 29.175 28.3875C29.525 28.6458 29.7667 28.9833 29.9 29.4V29.4" fill="#CFC2D7"/>
</svg>
