<svg width="48" height="48" viewBox="0 0 48 48" fill="none" xmlns="http://www.w3.org/2000/svg">
<rect width="48" height="48" fill="#2FF801"/>
<path d="M17.5766 21.9603L19.5266 22.7853C19.76 22.3186 20.0016 21.8686 20.2516 21.4353C20.5016 21.0019 20.7766 20.5686 21.0766 20.1353L19.6766 19.8603V19.8603V19.8603L17.5766 21.9603V21.9603M21.1266 24.0353L23.9766 26.8603C24.6766 26.5936 25.4266 26.1853 26.2266 25.6353C27.0266 25.0853 27.7766 24.4603 28.4766 23.7603C29.6433 22.5936 30.5558 21.2978 31.2141 19.8728C31.8725 18.4478 32.16 17.1353 32.0766 15.9353C30.8766 15.8519 29.56 16.1394 28.1266 16.7978C26.6933 17.4561 25.3933 18.3686 24.2266 19.5353C23.5266 20.2353 22.9016 20.9853 22.3516 21.7853C21.8016 22.5853 21.3933 23.3353 21.1266 24.0353V24.0353M25.5766 22.4103C25.1933 22.0269 25.0016 21.5561 25.0016 20.9978C25.0016 20.4394 25.1933 19.9686 25.5766 19.5853C25.96 19.2019 26.435 19.0103 27.0016 19.0103C27.5683 19.0103 28.0433 19.2019 28.4266 19.5853C28.81 19.9686 29.0016 20.4394 29.0016 20.9978C29.0016 21.5561 28.81 22.0269 28.4266 22.4103C28.0433 22.7936 27.5683 22.9853 27.0016 22.9853C26.435 22.9853 25.96 22.7936 25.5766 22.4103V22.4103M26.0516 30.4353L28.1516 28.3353V28.3353V28.3353L27.8766 26.9353C27.4433 27.2353 27.01 27.5061 26.5766 27.7478C26.1433 27.9894 25.6933 28.2269 25.2266 28.4603L26.0516 30.4353V30.4353M33.8766 14.1103C34.1933 16.1269 33.9975 18.0894 33.2891 19.9978C32.5808 21.9061 31.36 23.7269 29.6266 25.4603V25.4603V25.4603L30.1266 27.9353C30.1933 28.2686 30.1766 28.5936 30.0766 28.9103C29.9766 29.2269 29.81 29.5019 29.5766 29.7353L25.3766 33.9353L23.2766 29.0103L19.0016 24.7353L14.0766 22.6353L18.2516 18.4353C18.485 18.2019 18.7641 18.0353 19.0891 17.9353C19.4141 17.8353 19.7433 17.8186 20.0766 17.8853L22.5516 18.3853V18.3853V18.3853C24.285 16.6519 26.1016 15.4269 28.0016 14.7103C29.9016 13.9936 31.86 13.7936 33.8766 14.1103V14.1103M15.8516 27.9103C16.435 27.3269 17.1475 27.0311 17.9891 27.0228C18.8308 27.0144 19.5433 27.3019 20.1266 27.8853C20.71 28.4686 20.9975 29.1811 20.9891 30.0228C20.9808 30.8644 20.685 31.5769 20.1016 32.1603C19.685 32.5769 18.9891 32.9353 18.0141 33.2353C17.0391 33.5353 15.6933 33.8019 13.9766 34.0353C14.21 32.3186 14.4766 30.9728 14.7766 29.9978C15.0766 29.0228 15.435 28.3269 15.8516 27.9103V27.9103M17.2766 29.3103C17.11 29.4769 16.9433 29.7811 16.7766 30.2228C16.61 30.6644 16.4933 31.1103 16.4266 31.5603C16.8766 31.4936 17.3225 31.3811 17.7641 31.2228C18.2058 31.0644 18.51 30.9019 18.6766 30.7353C18.8766 30.5353 18.985 30.2936 19.0016 30.0103C19.0183 29.7269 18.9266 29.4853 18.7266 29.2853C18.5266 29.0853 18.285 28.9894 18.0016 28.9978C17.7183 29.0061 17.4766 29.1103 17.2766 29.3103V29.3103" fill="#0F6D00"/>
</svg>
